# xmcd
#
# Track frame offsets:
#	150
#	7117
#	25387
#	43275
#	65597
#	87621
#	109267
#	131474
#	156032
#	175507
#	200117
#	215998
#	229770
#
# Disc length: 3414 seconds
#
# Revision: 1
# Processed by: cddbd v1.5.2PL0 Copyright (c) Steve Scherf et al.
# Submitted via: audiograbber 1.83.01
#
DISCID=c10d540d
DTITLE=Gin Club, The - Junk [CD2]
DYEAR=1900
DGENRE=Blues
TTITLE0=Junk
TTITLE1=Tell Me
TTITLE2=Girl Kills Man
TTITLE3=White Smoke, Black Hearts
TTITLE4=Minnesota
TTITLE5=Brisbane, 1933
TTITLE6=Gas Guzzler
TTITLE7=Brother
TTITLE8=Waiting In Line
TTITLE9=You, Me and the Sea
TTITLE10=Boat, You've Been Drinking
TTITLE11=Lies
TTITLE12=Julia
EXTD=
EXTT0=
EXTT1=
EXTT2=
EXTT3=
EXTT4=
EXTT5=
EXTT6=
EXTT7=
EXTT8=
EXTT9=
EXTT10=
EXTT11=
EXTT12=
PLAYORDER=
